<svg xmlns="http://www.w3.org/2000/svg" height="76" viewBox="0 0 68 76" width="68"><g fill="none"><path d="m29.35 39.15 1.51 2.59-1.3.76-25.81 14.99-1.29.75-1.51-2.59 1.3-.76 25.81-14.99z" fill="#1f6e69"></path><path d="m53.59 24.94 1.57 2.55-1.27.79-13.1 8.06-1.28.78-1.57-2.55 1.27-.79 13.1-8.06z" fill="#c8f8a9"></path><path d="m14.78 25.47 1.32.72 13.51 7.35 1.31.72-1.43 2.63-1.32-.71-13.51-7.36-1.31-.72zm24.47 14.02 1.3.75 25.89 14.86 1.3.74-1.49 2.6-1.3-.74-25.89-14.86-1.3-.75zm-3.23-38.99v1.5l.08 29.84v1.5l-3 .01v-1.5l-.08-29.85v-1.5zm-.31 42.54v1.5l.08 29.85v1.5l-3 .01v-1.5l-.08-29.85v-1.5z" fill="#1f6e69"></path></g></svg>